<svg xmlns="http://www.w3.org/2000/svg" viewBox="0 0 825.56 180.87"><g id="レイヤー_2" data-name="レイヤー 2"><g id="base"><path d="M22.42,27.28l2.12-1.74,2.49.25a5.84,5.84,0,0,0,3.61-1.13,5.87,5.87,0,0,1,2.43-1.24,4.71,4.71,0,0,0,2.24-1.25,7.91,7.91,0,0,1,3.8-1.55,6.63,6.63,0,0,0,3.61-1.56,5,5,0,0,1,2.56-1.43,21.61,21.61,0,0,0,3.3-1.06l11.33-3.49a5.67,5.67,0,0,1,1.37.5h.5a4.54,4.54,0,0,0,2.92-1.19,5.27,5.27,0,0,1,3.43-1.18A16.66,16.66,0,0,0,73,9.72l.75.74C75.06,9,76.18,8.22,77.1,8.22h.75a22,22,0,0,1,2.24.5,17.65,17.65,0,0,1,5.1-1l2.87-.25a2.12,2.12,0,0,1,.75.25,4.37,4.37,0,0,1,2.74-1.37h1.37L98,5.11l1.5.5a7.09,7.09,0,0,1,4.61-1.25h1.24l1.25.25a16.3,16.3,0,0,0,2.3-.75q2.06-.75,10-.75l3.24.5a28.77,28.77,0,0,1,3.36-1.24l3.49.74,1.37-.49h.49a4.33,4.33,0,0,1,1.25.49h.25l9-1.24a3.86,3.86,0,0,1,1,.25,2.9,2.9,0,0,1,1.5-.87l2.37.62A9.18,9.18,0,0,0,149.71.5l.75.75,8.47-1L162,.5l2.74-.5q4.11,0,6.17,2.18A6.48,6.48,0,0,1,173,6.6l.5,3.86-.75,2.12-.24,2.49a3.46,3.46,0,0,1-1.87,2c0,.16-.37.35-1.12.56a7.47,7.47,0,0,0-2.24,1.06q-1.12.73-7.35.74c-2.07,0-3.4-.64-4-1.93s-1.21-2-1.87-2.18l-5.35-2.24a2.57,2.57,0,0,0-1.49-.25h-1l-5.1.5a9,9,0,0,1-1.37-.25,14.87,14.87,0,0,1-1.75.75l-9.21-.5-3.73.25-2.62-.5a7.14,7.14,0,0,0-1.74.37,29.16,29.16,0,0,1-5.23.63c-2.66.16-4,1-4,2.49a5.61,5.61,0,0,0,1,3,5.23,5.23,0,0,1,1.06,2.61c-1.24,1.75-1.87,2.87-1.87,3.37A21.21,21.21,0,0,0,110,27.16c-.83.83-2.36,2.13-4.6,3.92A18.24,18.24,0,0,0,100.8,36c-.83,1.5-1.83,2.24-3,2.24A14.91,14.91,0,0,0,94.7,42.1l-1,1a1.75,1.75,0,0,0-.24,1.12,2.16,2.16,0,0,1-.75,1.5l-1.12,3c-.58.25-2.29,2.41-5.11,6.47L85,55.93,83.5,57.68H81.75c-.74,0-1.12.49-1.12,1.49l.5,3.61a11.46,11.46,0,0,0-3,4.36l-1.49,2.49A17.85,17.85,0,0,0,74,72.5c0,.42-.84,2.2-2.49,5.36L71.3,79.1q0,2.12-8.72,12.21a18.08,18.08,0,0,0-1.49,7.22q-3.73,7.36-5.11,7.1a22.39,22.39,0,0,1-1.55,7.73q-1.3,3-3.37,8.78t-4.29,8.28l-.5,1a12.35,12.35,0,0,1-1.25,2,60.38,60.38,0,0,1-2.36,10.72l-.75,5.35-2.49,7A3.33,3.33,0,0,0,39,158a5.21,5.21,0,0,0,.81,1.93,5.51,5.51,0,0,1,.81,2.68,5.57,5.57,0,0,1-.62,2.81,5.43,5.43,0,0,0-.62,2.8c0,2.57-1.37,4.28-4.11,5.11h-1l-2.62.24q-5.22,0-9.46-5T18,154.84a33.52,33.52,0,0,1,.75-3.8c.5-2.2.79-3.63.87-4.3a6.75,6.75,0,0,1,.62-2.05,7.45,7.45,0,0,0,.5-3.05,18.4,18.4,0,0,1,3.05-10.59,64.12,64.12,0,0,0,4-6.48,1.59,1.59,0,0,1,.87-1.12,7.18,7.18,0,0,1-.37-2.49,6.93,6.93,0,0,1,3.11-5.86,12.69,12.69,0,0,1,.88-2.3q.61-1.3,2.61-6.36t5.23-5.91c-.08-.17.42-.83,1.5-2l-.5-4.36c0-.66.75-1.78,2.24-3.36l2.12-3.49a6.66,6.66,0,0,1,3.24-3.86A3,3,0,0,1,50.38,82c.08-.33.43-1.37,1.06-3.12a25.75,25.75,0,0,1,4-6.54q3.06-3.91,5.86-8.16t5.11-4.36a2.52,2.52,0,0,0,2.55-2.61l.75-4.61a25.65,25.65,0,0,0,4.36-4.36l1.74-2a4.07,4.07,0,0,1,1.31-2.3,9.93,9.93,0,0,0,2.05-2.3,13.78,13.78,0,0,1,3.12-3.12q1.62-5.1,7.35-8.84l2-2.12a19.94,19.94,0,0,1,3.49-4.05,6.36,6.36,0,0,0,2.05-2.8,4.76,4.76,0,0,1,2.68-2.62c1.33-.58,2-1.24,2-2,0-.33-.34-.5-1-.5a13,13,0,0,0-3.36.75h-1l-2.24.5h-.75l-2.12-.5a11.9,11.9,0,0,1-3.49.75,13.31,13.31,0,0,1-1.62,1.12H83.51L82,19.68l-1.12.25-3.24-.5a6.66,6.66,0,0,0-3.61,1.5q0,.24-4,.87a28.42,28.42,0,0,0-7.66,2.3A17.67,17.67,0,0,1,58,25.79l-2.24-.5h-.25a3.91,3.91,0,0,0-3,1.62,6.16,6.16,0,0,1-4,2H47A13,13,0,0,0,42,30.39a28,28,0,0,1-3.43,1.5l-2.24-.25A11.92,11.92,0,0,1,33.74,33a7,7,0,0,0-2.06,1.18,7,7,0,0,1-2,1.19,9.22,9.22,0,0,0-2.31,1.37,3.93,3.93,0,0,1-2.06,1h-.5l-1.49-.24c-.59,0-1.34.52-2.25,1.55A6.19,6.19,0,0,1,18.52,41a7.24,7.24,0,0,0-2.24,1.19,4.37,4.37,0,0,1-2.19.93,13.66,13.66,0,0,0-1.74,2.74,13.28,13.28,0,0,1-2.87,3.68A13.75,13.75,0,0,0,7.17,52c-.37.58-.73.87-1.06.87Q0,52.82,0,45.22l2.49-5.36q2.63-6.34,8-7.72c.92,0,3.28-.91,7.1-2.74ZM110,119l2.61-2.11a3.15,3.15,0,0,0,3.24-3.12q.24-2.87,4.11-5l1.49-2.12q1.86-1.86,10.21-4.86a9.91,9.91,0,0,0,2.86-2.24.75.75,0,0,1,.5-.25l2,.5a13.57,13.57,0,0,0,4.17-.87,15.21,15.21,0,0,1,4.92-.87l5.23-.25a6.66,6.66,0,0,1,2.05.74,8.7,8.7,0,0,0,3.8.75,6.81,6.81,0,0,1,5,2.49c1.54,1.67,2.3,3.2,2.3,4.61,0,2.58-1.32,5.19-4,7.85s-4.77,4.15-6.35,4.48a14.37,14.37,0,0,1-3.23,2.68,9.23,9.23,0,0,0-2.3,1.75,3.21,3.21,0,0,1-1.93,1.18A.87.87,0,0,1,146,124a.91.91,0,0,0-.75-.31q-2,0-4.35,4.86l-2.24-.25a6.5,6.5,0,0,0-2.73,3,2.52,2.52,0,0,1-2.61,1.62q-4.6,4.61-6.22,4.6a9.93,9.93,0,0,1-1.74-.49,4.1,4.1,0,0,0-1,2.61c0,1-.66,1.58-2,1.75l-1.61,1.49-1.25-.25L117,145.25a7.27,7.27,0,0,0-3.86,1.24c-.17,1-.41,2.27-.74,3.8s-.5,2.39-.5,2.56q0,3.61,6.6,3.61l6-.87a8.38,8.38,0,0,0,4.42-1.25,8.4,8.4,0,0,1,4.43-1.24,8.08,8.08,0,0,0,2.24-.5l1.24.5a8.26,8.26,0,0,1,3.24-3.37,7.9,7.9,0,0,1,3.74-1.49l1.25-.75a3.19,3.19,0,0,1,1.49-2l1-.88a2.79,2.79,0,0,1,1.87-1h1.74l.5-.25q1.5-3.24,4.17-3.8c1.79-.37,2.91-1,3.37-1.81a3,3,0,0,1,2.43-1.49,4.56,4.56,0,0,0,2.92-1.68,15.25,15.25,0,0,1,2.93-2.68,26.36,26.36,0,0,0,2.43-1.87,2,2,0,0,1,1.19-.62c.5,0,.74.37.74,1.12s.17,1.12.5,1.12a.44.44,0,0,0,.5-.5,3.93,3.93,0,0,0-.25-1.24v-.88a2.48,2.48,0,0,1,2-2.49l5.61-3.61c.17-1.74.64-2.76,1.44-3a5.76,5.76,0,0,0,1.8-1,2,2,0,0,1,1.37-.56c1.08,0,1.62.62,1.62,1.87l-.62,3.24.62,3.36a3.66,3.66,0,0,1-1.18,2.06,8.84,8.84,0,0,0-1.81,4c-.42,1.79-1,2.77-1.62,2.93H181a10.57,10.57,0,0,1-3.55,2.8,3.89,3.89,0,0,0-2.06,1.56L171.18,145c-.83.83-1.54,1.58-2.12,2.24s-1,1-1.37,1l-1-1c0-.16-.16-.25-.49-.25q-1.26,0-1.56,1.5a5.67,5.67,0,0,1-1.31,2.61c-2.5,1.17-4.12,2.24-4.87,3.24l-.74.25h-2.25c-1.08,0-1.83.81-2.24,2.43a3.74,3.74,0,0,1-3.55,2.8,7.7,7.7,0,0,0-4.18,1.5,3,3,0,0,1-1.12.5,16.65,16.65,0,0,0-3.49,2l-10.48,3.74a5.24,5.24,0,0,1-1.62.62l-3.49.5a2,2,0,0,1-1.49-1c-.5-.66-.83-1-1-1l-2.24.75a16.54,16.54,0,0,1-4.74.75,5.58,5.58,0,0,1-2.75-.87,23.36,23.36,0,0,0-2.36-1.25c-2.41,0-4.12-1.87-5.11-5.6l-1.5.24q-.49,0-3.37-8.84a4.17,4.17,0,0,0-2.36-1.43A2.2,2.2,0,0,1,96.76,148q0-5.61,2.43-7.54c1.62-1.28,2.51-2.26,2.67-2.93l1.75-6.47a6.51,6.51,0,0,0,1.24-2.49l2.87-5.24C108.05,122.74,108.79,121.29,110,119Zm26.34-7.47-1.49.75a27.42,27.42,0,0,0-2.93,2.18,28.64,28.64,0,0,1-4.74,3.11q-2.3,1.18-4.73,6.17T120,129.43a.66.66,0,0,0,.75.74l4.23-1.86a20.35,20.35,0,0,0,4.43-2.87,59.36,59.36,0,0,1,5.91-4.23l1-1a8.1,8.1,0,0,1,2.3-1.81,12.42,12.42,0,0,0,3.06-2.55l1.24-.5c1.41-2.24,2.85-3.61,4.3-4.11s2.18-1,2.18-1.49q0-1.5-2.37-1.5a6.68,6.68,0,0,0-3,1.25h-2.86a8.78,8.78,0,0,0-2.74,1.49Zm49.86,22.17v-1.24q0-1.24,2.49-5.36a12.09,12.09,0,0,1,5.72-5.36c.17,0,.25-.08.25-.24l-.25-2q.49-.49,2.49-3.24c1.33-1.82,2.61-2.61,3.86-2.36a11.36,11.36,0,0,1,3.49-3.3,15.86,15.86,0,0,0,3.85-3.43l4.61-2.87c3.23-2.15,5.6-3.23,7.09-3.23h1.87a4.51,4.51,0,0,1,4-2.5q2.37,0,3.12.75a.69.69,0,0,0,.5.25,9.21,9.21,0,0,0,1.49-1,5.57,5.57,0,0,1,3.36-1,43.05,43.05,0,0,1,5.6,2A4.2,4.2,0,0,1,242.54,98a4.36,4.36,0,0,1,1.74.74,19.93,19.93,0,0,0,2.56,1.31q1.31.55,2.55,4.61a35.16,35.16,0,0,1,1.24,4.55c0,1.33-1.1,2.88-3.29,4.67s-4.25,2.68-6.15,2.68c-.67,0-1.5-.58-2.49-1.75a32.14,32.14,0,0,1-6.34-1.87,18.12,18.12,0,0,0-5.34,1.87h-.25l-1.12-1-1-.25h-.25a12.72,12.72,0,0,0-1,1.74,12.74,12.74,0,0,1-3.42,1.81,5,5,0,0,0-2.3,1.37,10.22,10.22,0,0,1-2.92,1.93,6.74,6.74,0,0,0-3,2.74,16.52,16.52,0,0,1-3.61,1.62h-.74a48.34,48.34,0,0,1-4.6,6.6l-3.23,5.36c-.75.66-1.67,1.43-2.74,2.3s-1.62,1.64-1.62,2.31a7.12,7.12,0,0,0,.25,1.24v1.25c0,.5-.4,1.1-1.19,1.8s-1.18,1.23-1.18,1.56l.25,2.74-1,4.36c0,2.58,1.87,3.86,5.61,3.86h1.87l5.35-.87q2.61-.37,4.35-.75a18.55,18.55,0,0,1,2-.37,8.62,8.62,0,0,0,2-1.37h1.25l1.12-.25c.33-1.74,2.69-3.2,7.09-4.36a8.82,8.82,0,0,1,5-3.3,17.94,17.94,0,0,0,7.15-4.55H237a7.76,7.76,0,0,0,2.3-1.43,19.67,19.67,0,0,1,4-2.3,7.32,7.32,0,0,0,2.55-1.5A4.24,4.24,0,0,1,247.7,136a9.57,9.57,0,0,1,5.35-4.36l.5-.5q2-1.74,2.49-1.74l1.49.25q1.25,0,1.56-1.56t4-4.24c2.45-1.78,4-2.67,4.67-2.67,1.57,0,2.36.83,2.36,2.49,0,1.24-.7,2-2.12,2.11a23,23,0,0,1,1.37,3.62q0,4.11-4.11,5.35a.8.8,0,0,0-.49.75l-.25,2.24c.08,0,.08.07,0,.19a5.5,5.5,0,0,1-.5.56l-1.87.25-.5.75a30,30,0,0,0-6.35,5.1l-2.49,2.62h-.37a3.4,3.4,0,0,0-2-1.24c-.33,0-.74.58-1.24,1.74q-4.25,4.23-6.1,4.86a9.81,9.81,0,0,0-2.62,2L238,156.21H236.1a3.6,3.6,0,0,0-.69,1.06,7.16,7.16,0,0,1-2.18,2,13.88,13.88,0,0,0-2.67,2.43,4.62,4.62,0,0,1-2.31,1.56l-2.24-.5q-1.12,2-4.11,2a16.32,16.32,0,0,0-2.18,1.93c-.95.95-1.6,1.43-1.93,1.43a8.09,8.09,0,0,1-2.61-1.5h-.25c-.83,0-1.25.63-1.25,1.87s-.77,1.91-2.3,2a9.64,9.64,0,0,0-4.3,1.24h-.25a6.31,6.31,0,0,1-4.11-1.06,11.85,11.85,0,0,0-2.24-1.55c-2.57.83-3.94,1.24-4.11,1.24a4.24,4.24,0,0,1-2.87-1.24l-5.35-2.75a11.66,11.66,0,0,1-1.74-3.36l-.75-1q-4-.74-5.36-8.22l-1-3a1.66,1.66,0,0,1-.25-1.12,12,12,0,0,1,1-3.8,51.11,51.11,0,0,0,2-6.85Q183,134.79,186.16,133.66ZM265,124.32l1-1.37q3.25-.75,4.13-2.49.38-.87,6.26-6.48t6.5-6q4-7.22,4.84-10.84c1-.49,1.49-1.07,1.49-1.74l1-2,1.11-.25.5-.5V91.56c0-1.5,1.61-5,4.84-10.47Q301.54,71,301.91,70a23.19,23.19,0,0,1,1.49-3.12,82.19,82.19,0,0,0,3.43-7.91A51.3,51.3,0,0,1,314,46.71c.33-.16.83-1.1,1.49-2.8a18.1,18.1,0,0,1,3.12-5l1.49-2.62,2.62-4.36A35.89,35.89,0,0,1,326.14,27a13.84,13.84,0,0,0,2.36-3.8,6.92,6.92,0,0,1,1.93-2.87,9.5,9.5,0,0,0,2.31-3.17,3.88,3.88,0,0,1,3.67-2.31,7.42,7.42,0,0,1,7,4,15.06,15.06,0,0,1,2.18,7c0,.24-.5,2-1.49,5.35l-1.87,11.21c-1.66.83-2.49,1.79-2.49,2.87q0,6.6-5.11,13.7-.5.49-.81,3.24a7,7,0,0,1-2.18,4.48,15,15,0,0,0-3.36,5.86L316.73,89.07l-1,1A7.23,7.23,0,0,0,314,92.18l-2-.62c-2.24,0-3.37.7-3.37,2.12a5.83,5.83,0,0,0,.5,2v.25q0,.12-9.22,13.08a27.89,27.89,0,0,0-1.74,4.86l-1.74,3.73a24.5,24.5,0,0,0-3.68,7,16.16,16.16,0,0,1-2.8,5.54q-2.49,5.61-2.49,5.86a.66.66,0,0,0,.74.75c.5,0,1.69-1.25,3.55-3.74a23.44,23.44,0,0,1,4.61-5,10.18,10.18,0,0,0,3.06-3.49l1.25-.87a20.66,20.66,0,0,0,2.12-1.5l1.24.25a3.15,3.15,0,0,0,1.25-1.74,3.25,3.25,0,0,1,.75-1.5c2.16-.25,3.52-1,4.06-2.36s1.18-2,1.93-2,1.54-.76,2.62-2.3a11.73,11.73,0,0,1,4.55-3.74,26,26,0,0,0,4.37-2.55,23.44,23.44,0,0,1,5.8-2.68,22.48,22.48,0,0,1,5.87-1.56H336l1,.25,1.87-.25a17.81,17.81,0,0,1,8.73,2.43,7,7,0,0,1,3.73,7.54l-1,7.72-1.37,6.1a56.51,56.51,0,0,1-2,6.61,37.26,37.26,0,0,0-1.74,5.85l-.5,2.37.5,3.24-.25,2.61a1.1,1.1,0,0,0,1.24,1.25c.33,0,1.24-.75,2.73-2.24.91.16,1.78-.33,2.61-1.5a22.18,22.18,0,0,1,3.35-3.61q0-.49,1.62-.93a13.46,13.46,0,0,0,4.47-2.93q.5-1.12,4.84-4.8a43,43,0,0,1,8.32-5.67l.74-1c1.41-1.41,2.69-2.12,3.85-2.12s1.74.62,1.74,1.87a6.36,6.36,0,0,1-.62,2.61A11.73,11.73,0,0,0,379,131a19.75,19.75,0,0,1-2.49,6.3l-.5,1.24c-.58,1.41-1.28,2.24-2.11,2.49a6.23,6.23,0,0,0-2.68,2.06q-1.43,1.68-5.91,3.17c-1.32,2.5-2.36,3.74-3.11,3.74l-2.24-1q-2.61,2.13-2.61,4.36a30.15,30.15,0,0,0-3.85,3.62l-2.49-.25c-.67,0-1,.91-1,2.74q0,.26-2.55,1.68a29.84,29.84,0,0,0-3.92,2.55q-1.36,1.13-5.84,1.13a2.82,2.82,0,0,1-1.49-.88,8.31,8.31,0,0,0-2.93-1.49,4.17,4.17,0,0,1-2.67-2.93A15.09,15.09,0,0,0,329,155.9a4.19,4.19,0,0,1-.87-2.06l.25-2.49-.63-2.61,1.13-1.75a7.64,7.64,0,0,1-.75-2.37l1.24-7.59a80.84,80.84,0,0,1,2.25-10.72,2.61,2.61,0,0,0,.25-1.49l-.25-3.12.25-1.74c0-1.25-.42-1.91-1.25-2s-1.33-.29-1.5-.63a9.56,9.56,0,0,0-1.87-.74c-.66,0-1.25.52-1.74,1.55a10.22,10.22,0,0,1-2,2.81l-3.12-.5v.25q0,1-3.36,3.86a10.32,10.32,0,0,0-5.36,3.24c-.67,0-1.81.64-3.43,1.93a15.85,15.85,0,0,1-3.18,2.18l-1,2-2,.62q-.87,2.5-4.11,3.24l-1.25,2.37a4.07,4.07,0,0,0-3.61,2.68q-1,2.43-1.5,2.43a2.09,2.09,0,0,1-.81-.31,2.21,2.21,0,0,0-1.06-.32c-1.83,0-2.83,1.38-3,4.12q0,.49-5.12,5.85a68.1,68.1,0,0,1-5.48,5.48q-.37.13-1.44,2.55a7.77,7.77,0,0,1-2.93,3.62,31.74,31.74,0,0,0-2.8,1.93,2.79,2.79,0,0,1-1.44.75c-1.74,0-3.16-1.25-4.24-3.74s-1.62-3.78-1.62-3.86l.75-2.62-.25-2.24q0-.12,1.56-5.05a28.1,28.1,0,0,1,3.55-7.72q2-2.81,3.12-9.16c-3.74,2.5-6,3.74-6.73,3.74-1.67,0-2.5-1.08-2.5-3.24A16.44,16.44,0,0,1,265,124.32Zm142.74,38,2.37,1.75c1.16.66,1.74,2.12,1.74,4.36a3.44,3.44,0,0,1-.62,1.74,16.41,16.41,0,0,0-1.12,2.12q-4.37,8.59-10.22,8.59-1.86,0-5.85-3.36c-2.66-2.24-4.34-4.28-5.05-6.1a12.93,12.93,0,0,0-1.74-3.49,2.08,2.08,0,0,1-.69-1.25,5.63,5.63,0,0,1,1.06-3,11.45,11.45,0,0,0,1.56-4,5.11,5.11,0,0,1,2.68-3.62,11.74,11.74,0,0,0,3.17-2.3,3.34,3.34,0,0,1,2.62-1.12,3,3,0,0,1,2,.87,14.75,14.75,0,0,0,2.81,1.81,10.45,10.45,0,0,1,3.67,4ZM538.81,73.87l-3.36,7.22a34.32,34.32,0,0,1-3.8,7.17,28.41,28.41,0,0,0-3.18,5.42L525,101.27l-3.12,3.12a6,6,0,0,0-.75,2,15.83,15.83,0,0,1-1.61,5.92,48.42,48.42,0,0,0-2.5,6.91v1.5c0,.58-.66,1.87-2,3.86v1.49a25.74,25.74,0,0,1-2.12,4.61l.25,1.5a1.88,1.88,0,0,1-.25.75l-2.36,7.35a21.82,21.82,0,0,0-1.19,5c0,1-.1,1.91-.18,2.74v2.24l-.5,2.87.25,1.49v.75a11.38,11.38,0,0,1-.25,2.61,5.11,5.11,0,0,0,2,2.74.91.91,0,0,1,.75.32.68.68,0,0,0,.5.31l3.49-2.24a16.17,16.17,0,0,0,5.23-4.49l3.61-3.24.75-1.12,1.5-.25a26.28,26.28,0,0,0,2.3-2.74c.87-1.16,1.48-1.74,1.81-1.74a.71.71,0,0,1,.5.25h1.74a2.73,2.73,0,0,1,1.25.25l.25-.5v-2.12q0-4.11,2.62-4.11a21.44,21.44,0,0,1,3.36-4l.5-1.87c.17-.66,1.06-1.74,2.68-3.24a20,20,0,0,0,4.18-5.6l4.36-5.11a18.07,18.07,0,0,0,.75-1.87l1-1,2.12.25a1,1,0,0,0,.5-1,2,2,0,0,0-.25-.75,3.39,3.39,0,0,1-.25-1.49q0-1.12,3.67-5.92a39.8,39.8,0,0,0,4.68-7.1c.66-1.54,1.33-2.3,2-2.3q.5,0,.81.87a1.1,1.1,0,0,0,1.06.87.22.22,0,0,0,.25-.25c0-.17-.13-.33-.38-.5a.82.82,0,0,1-.37-.75,9.69,9.69,0,0,1,1.74-5.29,23.27,23.27,0,0,0,2.31-4.17,9.38,9.38,0,0,1,1.06-2.18,12.79,12.79,0,0,0,1.12-2.06,6,6,0,0,1,1.5-2.12A6.52,6.52,0,0,0,576.79,81a3.92,3.92,0,0,1,1.43-1.43c.58-.33,1.13-1.54,1.62-3.61s2.29-4.44,5.37-7.1a2.16,2.16,0,0,1-.75-1.5,4.33,4.33,0,0,1,.75-1.74q0-.87,4.42-9.22t7.3-12.83l.49-1.75L599,40.36,601.29,37l6.85-4.61c1.82-1.16,3.11-1.75,3.86-1.75a6.61,6.61,0,0,1,2,.25,2.46,2.46,0,0,1,1.37-.74,4.2,4.2,0,0,1,1,.24h.5a4.41,4.41,0,0,1,1.74-.74,3,3,0,0,1,1.37.5h.75c.83,0,2.14.64,3.92,1.93s2.68,2.26,2.68,2.92l-.25,1.5.25,1.49a12.48,12.48,0,0,1-2.92,7.66q-2.94,3.81-3.43,4.68l-1.62.74A13.8,13.8,0,0,0,619,53,4.37,4.37,0,0,1,618,55.5a12.94,12.94,0,0,0-2,3.55,18,18,0,0,1-2,3.73v1.75L608.14,78.6A14.72,14.72,0,0,1,607,81.28a2.24,2.24,0,0,1-2.06,1.18,3.8,3.8,0,0,0,.93,1.06,1.42,1.42,0,0,1,.56,1.19q0,3.36-3.61,4.36a3,3,0,0,1,.75,1.74l.62,1.37-2.36,4.24v2.11A13.3,13.3,0,0,0,600,102v2.12a10.84,10.84,0,0,1-1.5,3.24l-1.12,2.12a13.4,13.4,0,0,0-.75,2h-.25l.25,2.62c-.17.16-.67.58-1.5,1.24v2.49a4.28,4.28,0,0,0-1.25,3.37,6.91,6.91,0,0,1-1.38,3.11,7.16,7.16,0,0,1,.25,1.25,14,14,0,0,1-1,5.41,11.29,11.29,0,0,0-1,3.18V136a2.16,2.16,0,0,1,.75,1.49,7.88,7.88,0,0,1-.38,1.44,7.55,7.55,0,0,0-.37,2.18c0,2.49.5,3.73,1.5,3.73l2.88-.87a3.48,3.48,0,0,0,2.12-1.68,4.1,4.1,0,0,1,2.06-1.81,2.27,2.27,0,0,0,1.56-1.93c.09-.87.9-1.49,2.43-1.87s4.84-3.09,9.91-8.15l3.86-2.25,1-1.74q1-1,3.31-3.86c1.53-1.91,2.76-2.87,3.67-2.87q3.74,0,3.74,4.11a36.46,36.46,0,0,1-1.19,4.86c-.79,2.83-1.35,4.4-1.68,4.73a10.64,10.64,0,0,1-1.49,1.19,7.05,7.05,0,0,0-2,2.8q-5.73,5.61-8.47,6.35a34.59,34.59,0,0,0-2.74,2.31,20.89,20.89,0,0,1-3.3,2.55,15.89,15.89,0,0,0-2.68,2A8.86,8.86,0,0,1,602,150.6l-1,.5a2,2,0,0,0-.75-.25c-.5,0-1.06.38-1.69,1.12a6,6,0,0,1-2.81,1.75,8.28,8.28,0,0,0-2.94,1.56,3.06,3.06,0,0,1-1.56.93l-2-.87c-1,.91-1.62,1.37-1.87,1.37l-1.5-.75a2.85,2.85,0,0,0-1.38-.75,6.56,6.56,0,0,1-2.06-1.12,26.17,26.17,0,0,0-2.56-1.74c-1.08-.67-2.08-2.2-3-4.61l-1-1.25a8.63,8.63,0,0,1-1.24-2.61c0-.5.08-1.5.25-3v-.75a20.14,20.14,0,0,0-.5-3.55,19.35,19.35,0,0,1-.5-3.67l3-16.57-.5-3a12.45,12.45,0,0,1,1.56-5q1.54-3.16,3-14.14-2,6.1-3,6.11l-1.87-.25a1,1,0,0,0-.5,1,9.19,9.19,0,0,0,.5,2.11v1.75c0,1.58-1.54,2.86-4.61,3.86a2,2,0,0,1-.25.75c.91.41,1.37.83,1.37,1.24a5.19,5.19,0,0,1-2.31,4.49,11.41,11.41,0,0,0-3,2.8c-.5.79-1,1.18-1.37,1.18l-.75-1.12H565l-1.25,2.37a3.66,3.66,0,0,1,.75,1.24q0,.51-2.55,4.36t-3.06,3.87l-3.61,3.48-.5,1.12v1.25a2.61,2.61,0,0,1-.5,1l-4.86,6.85-1.5,2.86-5.1,7.6A7,7,0,0,0,540,156l-.87.5c0,1.33-1.08,2.57-3.24,3.74a8.27,8.27,0,0,1-3.12,4.61,13.87,13.87,0,0,0-3,2.36l-2.36,1.5-3,2.49-3.36,1.12-1.5-1.12c-.66,1.91-1.24,2.86-1.74,2.86l-2.87-.5-2.37.5c-2,0-4.59-1.32-7.79-4a41.73,41.73,0,0,1-5.67-5.23l-1.49-2a3.33,3.33,0,0,1-1-1.56,6.75,6.75,0,0,0-2.36-2.55l-1.25-2v-1.62q-3-4.36-3.3-5.67a32.19,32.19,0,0,1-.31-5.79v-1l.5-1.74-.25-2.87a19.5,19.5,0,0,1,1.18-5.6,28,28,0,0,0,1.18-4.11v-.75l-.37-.75,1.62-5.23a11.85,11.85,0,0,1,1.24-3.36c.34-.42.58-1.85.75-4.3s1.37-3.68,3.62-3.68a2,2,0,0,1,.74.25,1.32,1.32,0,0,0,1-1.49h-.5c-.66,0-1-.46-1-1.37a4.46,4.46,0,0,1,.75-2.74,4.72,4.72,0,0,0,.75-2.87,6.89,6.89,0,0,1,2.05-4.54,13.46,13.46,0,0,0,2.06-2.56q0-1.86,1.93-5.42a66.53,66.53,0,0,0,3.11-6.41A25.16,25.16,0,0,1,512.61,78,17.08,17.08,0,0,0,515,73.62a11.24,11.24,0,0,1,3-4.24l1.37-2.49A37.11,37.11,0,0,1,522.08,63a7.27,7.27,0,0,0,1.55-3.67,3.74,3.74,0,0,1,2.18-3,3.29,3.29,0,0,0,2.12-2.18,8.87,8.87,0,0,1,.93-2.56,8.87,8.87,0,0,0,.94-2.43,6.47,6.47,0,0,1,1.49-2.68,14.81,14.81,0,0,0,2.31-4.54c.7-2,1.72-3.05,3-3.05l2.49.24.25-.87a2.41,2.41,0,0,0-.62-1,2.34,2.34,0,0,1-.63-1.5c0-2.41.79-3.61,2.37-3.61q.75,0,1.74,1.62c.58-4.9.94-7.5,1.06-7.79a2.24,2.24,0,0,0,.19-.93l.25-1.25a3,3,0,0,0,.25-1.37,4.36,4.36,0,0,0-.93-2.24c-.63-.91-1.15-1.37-1.56-1.37-.09,0-1,.21-2.87.62l-1.49-1.49c-.83,1.83-1.66,2.74-2.49,2.74l-2.12-.75q-4.37,2.75-5.61,2.74l-2-.75h-.25c-.5,0-1,.61-1.56,1.81a3.24,3.24,0,0,1-3.3,1.81h-1.24a7.28,7.28,0,0,1-3.12,2.55,6.83,6.83,0,0,0-2.68,1.56,8.69,8.69,0,0,1-2.42,1.62A14,14,0,0,0,507,33.76l-1.24.75c-1.5.91-2.33,1.8-2.5,2.67a4.6,4.6,0,0,1-1.36,2.43q-4.48,3.24-4.49,5.36l.25,2.24-.25,3.24c0,.92-.76,2-2.3,3.3s-2.8,1.93-3.8,1.93q-9,0-9-5.35l.5-3.62-.25-2.86.25-2.49q0-2.86,3.43-5.42a48.14,48.14,0,0,0,4.67-3.8l4.86-2.49a10.9,10.9,0,0,0,2.5-2.56q.87-1.31,5.48-3.24a25.23,25.23,0,0,0,6.74-3.79,18.79,18.79,0,0,1,6.23-3.31,51.27,51.27,0,0,0,6.3-2.55,9.61,9.61,0,0,1,2.67-1.12l1.5.25a12.17,12.17,0,0,0,2.68-1.56,5.24,5.24,0,0,1,3.17-1.06l15.33-3.48q2.36-.63,9,2.74T564,24.79q0,2.37-3.8,10.21a83.81,83.81,0,0,1-8.41,14L551,50.82l-3.36,5.86-2,4.36c-.92,1.66-1.87,3.61-2.87,5.85l-2.24,3A15.17,15.17,0,0,0,538.81,73.87Zm186.41,71.38h.5l1.25.5a.75.75,0,0,0,.5-.25,4.43,4.43,0,0,1,2-3.62,5.71,5.71,0,0,1,2.81-3.61q2.18-1.25,6.93-4.11l3.12-2.74,1.5-.75,1-1.24a3.69,3.69,0,0,1,2.62-1.62c1.25,0,1.87.46,1.87,1.37l-1.12,2.49.5,4.11a5.82,5.82,0,0,1-1.56,4q-1.56,1.74-4.8,5.1L736,151.6l-3.36,1.74a11.4,11.4,0,0,0-2.25,1.75l-4.86,4.11a3.14,3.14,0,0,1-1.12,2.62h-2l-1,.49c-.58,1.58-2.29,3.12-5.11,4.61l-1.75,1.25a2.57,2.57,0,0,1-1.62.75l-3.49-.5-2.37.5a5.83,5.83,0,0,1-2.68-1,17.75,17.75,0,0,0-3.43-1.56q-1.75-.56-4.43-4.61c-1.79-2.69-2.77-4.46-2.93-5.29a4.72,4.72,0,0,0-.57-1.68,5.86,5.86,0,0,1-.56-1.44,15.93,15.93,0,0,1,1.13-2.49v-.25a5.75,5.75,0,0,0-.69-1.74,7.4,7.4,0,0,1-.69-3.36,7.65,7.65,0,0,0-.74-2.87c.66-.66,1-1.16,1-1.49a4.29,4.29,0,0,0-.37-1.44,4.2,4.2,0,0,1-.37-1.43l.74-6.1-.49-3.12.24-3c0-1.74-.74-2.61-2.23-2.61a4.17,4.17,0,0,0-2.48,1.37l-.87.25a28.82,28.82,0,0,0-4.72,2.68A4.61,4.61,0,0,1,679,128.8a6.92,6.92,0,0,1-2.86,1.37l-1,.75a15,15,0,0,1-2,1.5q0,.38-4.65,4.17t-8.38,7.16c-2.49,2.25-4.28,3.47-5.4,3.68s-1.68,1.26-1.68,3.17c0,.34-.74,1-2.23,2a15.75,15.75,0,0,0-2.61,2.74,10.88,10.88,0,0,0-2.23-1.5c-1.08,0-1.88,1.37-2.38,4.11-.5,1.08-1.83,1.75-4,2a5.1,5.1,0,0,0-.88,1.87l-.49.49H637a6.69,6.69,0,0,0-1.75,1.44,7.69,7.69,0,0,1-2.63,1.8c-1.08,2.24-2,3.37-2.74,3.37a3.45,3.45,0,0,1-1.44-.5,10.67,10.67,0,0,0-2.31-.87q-1.36-.37-3-3.06a9,9,0,0,1-1.68-4.54q0-13.83,5.36-15.08l.24-.49v-1a2.38,2.38,0,0,1,1.44-2.31,8.3,8.3,0,0,0,2.92-2.74,9.61,9.61,0,0,1,2-2.3H635c.33,0,.49-.87.49-2.62a1.92,1.92,0,0,1,.63-1.37,2.93,2.93,0,0,0,.75-1.8,11,11,0,0,1,1.8-3.86,12.06,12.06,0,0,0,1.68-3.18l-.25-.5c-2.07,1.91-3.57,3-4.48,3.11s-2.16,1.38-3.74,3.62l-2-.38a46.61,46.61,0,0,1-6.49,4.36,7.05,7.05,0,0,0-2.75,2.87c0,.5-.29.83-.87,1a13.44,13.44,0,0,0-3.25,2h-.75q-3.12,0-3.12-4.49l2.61-7.1q1.13-3.36,5.29-5.66a63.26,63.26,0,0,0,7-4.43,10.38,10.38,0,0,1,5.73-2.24l.87-1.24a9.53,9.53,0,0,0,5.72-5.11q1.5-3.5,4.11-3.49,6.84,0,10.46,5t3.6,8l.25,3.36a22.66,22.66,0,0,1-.74,4.86,7.23,7.23,0,0,0-1.5,3.36c0,.67.42,1,1.25,1a3.53,3.53,0,0,0,2-1.06,17.72,17.72,0,0,1,2.8-1.93,4.16,4.16,0,0,0,1.81-1.49,7.09,7.09,0,0,1,4.35-4.11,12.37,12.37,0,0,0,3.86-1.87l1.24-1,1-1.87a13.94,13.94,0,0,0,4.48-2.74,5.29,5.29,0,0,1,3-1.62,10.53,10.53,0,0,0,4.23-2.24l1.87-.5,1.74-1a4.28,4.28,0,0,1,1.49-.63c.83-.25,2-.68,3.67-1.31A10.28,10.28,0,0,1,708.19,112q3.67,5.1,3.67,8.22l-.25,2.24.5,3.36v.5l-1,6.85.24,2.37c0,3.91-.83,6.6-2.49,8.1-.41.17-.62.58-.62,1.24V146l2.49,5.23c.75,1.82,1.33,2.74,1.75,2.74l4-1.12a4.87,4.87,0,0,0,2.88-2.62,18.29,18.29,0,0,0,3.49-3C723.35,145.91,724.14,145.25,725.22,145.25Zm22.23-18.69,2-1.74h.75c.58,0,1.45-.62,2.61-1.87l1.25-.5q2.49-3.74,4.37-4.36l2-1.49a4.23,4.23,0,0,1,1.44-.88,11.45,11.45,0,0,0,3-2.42c1.37-1.37,2.47-2.06,3.3-2.06a6.37,6.37,0,0,1,2,.25,8,8,0,0,1,3-2.93,12.38,12.38,0,0,0,3.62-3.42l1.62-.75a13.65,13.65,0,0,0,3.55-2.55,5.49,5.49,0,0,1,4.06-1.56q3.62,0,7.54,3.67t3.92,7l-2.12,9.72q-2.12,10.71-4.73,11.21l-.5,2.61c-1.16.84-1.74,1.5-1.74,2l.74,3c0,.41-.45,1-1.37,1.87-.16,0-.24.25-.24.74v5.11c0,.92-.59,1.66-1.75,2.24a2.78,2.78,0,0,0,.75.5q.75-.75,3.36-.75l2,.25,2.74-2.74a10.9,10.9,0,0,0,2.42-1.18,41.94,41.94,0,0,1,5.29-2.43l16.3-12.46q3.36-3.36,5.1-3.36c1.24,0,1.87.79,1.87,2.37a8.92,8.92,0,0,1-1.06,4.54,23.86,23.86,0,0,0-1.93,4.36,7.89,7.89,0,0,1-2.06,3.55,9.79,9.79,0,0,0-1.93,2.18,15.94,15.94,0,0,1-4.05,3.43,37.61,37.61,0,0,0-5.6,4.55,28.05,28.05,0,0,1-3.8,3.3l-5.35,3.86-.75,1.24a11.38,11.38,0,0,1-2.31,1.06,15,15,0,0,0-3.67,2.06l-2.24,1.24a5.11,5.11,0,0,1-2.43.63,4.39,4.39,0,0,0-2.93,1.43c-.83.87-1.49,1.31-2,1.31l-1.87-.25-2.49.75q-2.11,0-5.17-2.56t-3-5.42v-.74l.25-1.75a11.38,11.38,0,0,0-.75-2.55,15.76,15.76,0,0,1-.75-2.31l.25-1.74-.25-.75a10.76,10.76,0,0,1,.5-4.23,7.43,7.43,0,0,0,.75-2.43c.17-1,.33-1.89.5-2.56l.62-3.11a3.69,3.69,0,0,1,1.25-2c.16-.67.5-1.79,1-3.37l.5-2.24,1.25-1.74a4.35,4.35,0,0,0,1.18-2.68,8.9,8.9,0,0,1,1.31-3.55A8.14,8.14,0,0,0,779.6,121a1.32,1.32,0,0,0-1.49-1.5c-.34,0-1.37.67-3.12,2l-2.24-.75c-.17,0-.63.41-1.37,1.24,0,.34-.38.59-1.12.75a3.66,3.66,0,0,0-2.12,1.87l-1,.25-1.62-.75H765c-.83,0-1.33.92-1.49,2.74a6.38,6.38,0,0,1-3.62,2.62l-2.74.74a3.41,3.41,0,0,0-2,2.25,7.11,7.11,0,0,1-2.49,3.17,6.09,6.09,0,0,1-2.5,1.44c-2.32,0-3.49-1.29-3.49-3.87l1-5.85Zm53.82-62.28-.75-4.86v-.75q0-5.85,4-6.48a47.74,47.74,0,0,0,5.24-1.61q2.24.49,4.67,3.92c1.62,2.28,2.43,4.3,2.43,6a4.07,4.07,0,0,1-.38,1.12A11.29,11.29,0,0,0,816,65a5.67,5.67,0,0,1-2.42,4.24,7.87,7.87,0,0,1-4.92,1.8c-1.17,0-2.64-.81-4.43-2.42S801.43,65.52,801.27,64.28Z"/></g></g></svg>