<svg xmlns="http://www.w3.org/2000/svg" viewBox="0 0 837.66 189.04"><defs><style>.cls-1{fill:none;stroke:#000;stroke-linecap:round;stroke-linejoin:round;stroke-width:25.51px;opacity:0.7;}</style></defs><g id="レイヤー_2" data-name="レイヤー 2"><g id="mask"><path class="cls-1" d="M12.76,49.08S98.37,2.87,175,14.69c0,0-42-4-60.53,1.43,0,0-82,94.59-79.17,155.12l84.9-26.88s46.83-27.85,46.92-34c0,0-35.82-15.41-49.07,28.84,0,0-23.45,68.6,69.05-8.42,0,0,28-36.54,63.84-22.21,0,0-53.73,0-53.37,51.58,0,0,9,35.82,84.9-32.95,0,0,49-43.15,62.33-99.58,0,0-64.88,119.28-66.65,134.68,0,0,70.59-62,74.17-46.21,0,0-22,76.83,30.8,18.62l24.14,41.61L497.77,51.23S520,11.46,563.65,22.57c0,0-52.27,97.42-54.42,112.11,0,0-11.46,88.4,58.75-11l57.31-83.24S556.16,189.14,618.85,144c0,0,31.52-30.09,37.61-25.43,0,0-12.9,35.82-21.5,45.49,0,0,64.22-48.82,74.51-44.77,0,0-6.09,36.53,7.52,45.49,0,0,12.54,0,42.27-30.81,0,0,35.82-26.5,36.54-20.06,0,0-14.71,40.58-11.1,51.59,0,0,21.66-1.44,40.2-21.85l-8.16-80.6"/></g></g></svg>